<svg width="23" height="28" viewBox="0 0 23 28" fill="none" xmlns="http://www.w3.org/2000/svg">
<path d="M11.4023 14.9052C11.4303 14.9052 11.4583 14.9052 11.4919 14.9052C11.5031 14.9052 11.5143 14.9052 11.5255 14.9052C11.5423 14.9052 11.5647 14.9052 11.5815 14.9052C13.2221 14.8766 14.5492 14.2866 15.5291 13.1581C17.6848 10.672 17.3265 6.41005 17.2873 6.00333C17.1473 2.95011 15.7362 1.48938 14.5716 0.8077C13.7036 0.297875 12.6901 0.0229135 11.5591 0H11.5199C11.5143 0 11.5031 0 11.4975 0H11.4639C10.8423 0 9.62167 0.103111 8.45139 0.784787C7.27551 1.46646 5.84206 2.9272 5.70207 6.00333C5.66288 6.41005 5.30452 10.672 7.46029 13.1581C8.43459 14.2866 9.76165 14.8766 11.4023 14.9052ZM7.19712 6.14654C7.19712 6.12936 7.20272 6.11217 7.20272 6.10072C7.3875 1.99347 10.2376 1.55239 11.4583 1.55239H11.4807C11.4919 1.55239 11.5087 1.55239 11.5255 1.55239C13.0373 1.58676 15.6074 2.21688 15.781 6.10072C15.781 6.1179 15.781 6.13509 15.7866 6.14654C15.7922 6.18664 16.1842 10.0819 14.4036 12.1327C13.698 12.9461 12.7573 13.3471 11.5199 13.3586C11.5087 13.3586 11.5031 13.3586 11.4919 13.3586C11.4807 13.3586 11.4751 13.3586 11.4639 13.3586C10.232 13.3471 9.2857 12.9461 8.58577 12.1327C6.81076 10.0934 7.19152 6.18091 7.19712 6.14654Z" fill="white"/>
<path d="M22.9984 21.974C22.9984 21.9683 22.9984 21.9626 22.9984 21.9568C22.9984 21.911 22.9928 21.8652 22.9928 21.8136C22.9592 20.6794 22.8864 18.0272 20.4563 17.1794C20.4395 17.1737 20.4171 17.1679 20.4003 17.1622C17.8749 16.5034 15.7752 15.0141 15.7528 14.9969C15.4112 14.7506 14.9408 14.8365 14.7001 15.1859C14.4593 15.5353 14.5433 16.0165 14.8848 16.2628C14.98 16.3316 17.2086 17.9183 19.9971 18.6516C21.3018 19.127 21.4474 20.5534 21.4866 21.8595C21.4866 21.911 21.4866 21.9568 21.4922 22.0027C21.4978 22.5182 21.4642 23.3145 21.3746 23.7727C20.4675 24.2997 16.9118 26.1214 11.5028 26.1214C6.11612 26.1214 2.53807 24.294 1.62536 23.767C1.53577 23.3087 1.49658 22.5125 1.50777 21.9969C1.50777 21.9511 1.51337 21.9053 1.51337 21.8537C1.55257 20.5477 1.69815 19.1213 3.00283 18.6458C5.79135 17.9126 8.01993 16.3201 8.11512 16.2571C8.45668 16.0108 8.54067 15.5296 8.2999 15.1802C8.05912 14.8308 7.58877 14.7448 7.2472 14.9911C7.2248 15.0083 5.13621 16.4977 2.59967 17.1565C2.57727 17.1622 2.56047 17.1679 2.54367 17.1737C0.113513 18.0272 0.0407202 20.6794 0.00712354 21.8079C0.00712354 21.8595 0.00712341 21.9053 0.00152397 21.9511C0.00152397 21.9568 0.00152397 21.9626 0.00152397 21.9683C-0.00407547 22.2662 -0.0096748 23.7956 0.287096 24.5633C0.34309 24.7122 0.44388 24.8382 0.578267 24.9241C0.74625 25.0387 4.77225 27.6623 11.5084 27.6623C18.2445 27.6623 22.2705 25.033 22.4385 24.9241C22.5673 24.8382 22.6737 24.7122 22.7297 24.5633C23.0096 23.8014 23.004 22.2719 22.9984 21.974Z" fill="white"/>
</svg>
