<svg width="35" height="32" viewBox="0 0 35 32" fill="none" xmlns="http://www.w3.org/2000/svg">
<path d="M6.21007 8.95988H25.7121C26.3649 8.95988 26.8427 9.57518 26.681 10.2076L25.141 16.2302C24.8014 17.5581 23.6051 18.487 22.2345 18.487H7.8608M0 3.49957H3.83163C4.81484 3.49957 5.65222 4.21422 5.80677 5.18521L8.36735 21.2733C8.52189 22.2443 9.35928 22.959 10.3425 22.959H24.5639" stroke="white" stroke-width="1.5"/>
<path d="M11.8184 26.6385C12.797 26.6385 13.6375 27.4696 13.6377 28.5535C13.6377 29.6376 12.797 30.4695 11.8184 30.4695C10.8399 30.4693 10 29.6375 10 28.5535C10.0002 27.4697 10.84 26.6388 11.8184 26.6385Z" stroke="white" stroke-width="1.5"/>
<path d="M23.1206 26.6385C24.0992 26.6385 24.9398 27.4696 24.9399 28.5535C24.9399 29.6376 24.0993 30.4695 23.1206 30.4695C22.1421 30.4693 21.3022 29.6375 21.3022 28.5535C21.3024 27.4697 22.1422 26.6388 23.1206 26.6385Z" stroke="white" stroke-width="1.5"/>
<circle cx="28" cy="7" r="7" fill="#E8AA31"/>
<path d="M27.672 10.064C27.2293 10.064 26.8347 9.952 26.488 9.728C26.1467 9.49867 25.8773 9.168 25.68 8.736C25.4827 8.304 25.384 7.792 25.384 7.2C25.384 6.608 25.4827 6.096 25.68 5.664C25.8773 5.232 26.1467 4.904 26.488 4.68C26.8347 4.45067 27.2293 4.336 27.672 4.336C28.1093 4.336 28.4987 4.45067 28.84 4.68C29.1867 4.904 29.4587 5.232 29.656 5.664C29.8533 6.096 29.952 6.608 29.952 7.2C29.952 7.792 29.8533 8.304 29.656 8.736C29.4587 9.168 29.1867 9.49867 28.84 9.728C28.4987 9.952 28.1093 10.064 27.672 10.064ZM27.672 9.352C28.12 9.352 28.4773 9.168 28.744 8.8C29.016 8.432 29.152 7.89867 29.152 7.2C29.152 6.50133 29.016 5.968 28.744 5.6C28.4773 5.232 28.12 5.048 27.672 5.048C27.2187 5.048 26.856 5.232 26.584 5.6C26.3173 5.968 26.184 6.50133 26.184 7.2C26.184 7.89867 26.3173 8.432 26.584 8.8C26.856 9.168 27.2187 9.352 27.672 9.352Z" fill="white"/>
</svg>
